<!--?xml version="1.0" encoding="utf-8"?-->
<!-- Generator: Adobe Illustrator 16.0.0, SVG Export Plug-In . SVG Version: 6.00 Build 0)  -->

<svg version="1.1" id="Layer_1" xmlns="http://www.w3.org/2000/svg" xmlns:xlink="http://www.w3.org/1999/xlink" x="0px" y="0px" width="100px" height="100px" viewBox="0 0 100 100" enable-background="new 0 0 100 100" xml:space="preserve">
<g transform="translate(0.000000,200.000000) scale(0.100000,-0.100000)">
	<path fill="none" stroke="#000000" stroke-miterlimit="10" d="M220,1128.33" class="yDVvGXZc_0"></path>
	<path fill="none" stroke="#fff" stroke-width="65" stroke-miterlimit="10" d="M500.976,1753.818
		c48.076,58.35,124.717,89.321,196.484,89.321c116.123,0,213.33-95.103,213.33-228.042s-51.66-213.623-153.33-318.623
		s-258.33-190-258.33-190L500,1110c0,0-156.66,85-258.33,190S88.335,1485.683,88.335,1618.623s97.217,228.042,213.335,228.042
		s245-81.079,245-228.042c0-125.313-47.261-212.842-223.403-389.854" class="yDVvGXZc_1"></path>
	<path fill="none" stroke="#fff" stroke-width="65" stroke-miterlimit="10" d="M307.835,1618.623A9.67,9.67 0,1,1 327.175,1618.623A9.67,9.67 0,1,1 307.835,1618.623" class="yDVvGXZc_2"></path>
</g>
<style>.yDVvGXZc_0{stroke-dasharray:0 2;stroke-dashoffset:1;animation:yDVvGXZc_draw 2800ms linear 0ms forwards;}.yDVvGXZc_1{stroke-dasharray:3131 3133;stroke-dashoffset:3132;animation:yDVvGXZc_draw 2800ms linear 100ms forwards;}.yDVvGXZc_2{stroke-dasharray:61 63;stroke-dashoffset:62;animation:yDVvGXZc_draw 2800ms linear 200ms forwards;}@keyframes yDVvGXZc_draw{100%{stroke-dashoffset:0;}}@keyframes yDVvGXZc_fade{0%{stroke-opacity:1;}94.44444444444444%{stroke-opacity:1;}100%{stroke-opacity:0;}}</style></svg>
