<!--?xml version="1.0" encoding="utf-8"?-->
<!-- Generator: Adobe Illustrator 16.0.0, SVG Export Plug-In . SVG Version: 6.00 Build 0)  -->

<svg version="1.1" id="Layer_1" xmlns="http://www.w3.org/2000/svg" xmlns:xlink="http://www.w3.org/1999/xlink" x="0px" y="0px" width="100px" height="100px" viewBox="0 0 100 100" enable-background="new 0 0 100 100" xml:space="preserve">
<g transform="translate(0.000000,200.000000) scale(0.100000,-0.100000)">
	<path fill="none" stroke="#fff" stroke-miterlimit="10" d="M220,1128.33" class="PtHxrKha_0"></path>
	<path fill="none" stroke="#fff" stroke-width="65" stroke-miterlimit="10" d="M500.976,1753.818
		c48.076,58.35,124.717,89.321,196.484,89.321c116.123,0,213.33-95.103,213.33-228.042s-51.66-213.623-153.33-318.623
		s-258.33-190-258.33-190L500,1110c0,0-156.66,85-258.33,190S88.335,1485.683,88.335,1618.623s97.217,228.042,213.335,228.042
		s245-81.079,245-228.042c0-125.313-47.261-212.842-223.403-389.854" class="PtHxrKha_1"></path>
	<path fill="none" stroke="#fff" stroke-width="65" stroke-miterlimit="10" d="M229.922,1605.63A87.583,87.583 0,1,1 405.08799999999997,1605.63A87.583,87.583 0,1,1 229.922,1605.63" class="PtHxrKha_2"></path>
</g>
<style>.PtHxrKha_0{stroke-dasharray:0 2;stroke-dashoffset:1;animation:PtHxrKha_draw 2000ms linear 0ms forwards;}.PtHxrKha_1{stroke-dasharray:3131 3133;stroke-dashoffset:3132;animation:PtHxrKha_draw 2000ms linear 500ms forwards;}.PtHxrKha_2{stroke-dasharray:551 553;stroke-dashoffset:552;animation:PtHxrKha_draw 2000ms linear 1000ms forwards;}@keyframes PtHxrKha_draw{100%{stroke-dashoffset:0;}}@keyframes PtHxrKha_fade{0%{stroke-opacity:1;}94.44444444444444%{stroke-opacity:1;}100%{stroke-opacity:0;}}</style></svg>
